<svg xmlns="http://www.w3.org/2000/svg" version="1.1" xmlns:xlink="http://www.w3.org/1999/xlink" width="2000" height="78" viewBox="0 0 2000 78"><svg xml:space="preserve" width="2000" height="78" data-version="2" data-id="lg_k11VyQZki18Y1RsNbl" viewBox="0 0 502 78" x="0" y="0"><rect width="100%" height="100%" fill="transparent"></rect><path fill="#fff" d="m97.821 59.658.07-4.4v-36.35q0-1.92 7.81-1.92h1.49q9.45 0 15.3 3.37 5.86 3.37 5.86 9.41 0 2.7-.64 3.94-.64 1.24-.89 1.78-.24.53-1.2 1.42-.96.88-1.14 1.1-.18.21-1.45 1.2-1.28 1-1.42 1.07 4.89 1.84 7.77 4.54t2.88 6.6q0 3.91-1.89 6.93-1.88 3.01-4.22 4.65-5.75 3.9-19.88 3.9-6.96 0-7.88-1.13-.57-.78-.57-6.11m11.79-15.97-2.35-.08q-1.63 0-2.02.4-.39.39-.39 1.95l.14 15.48q0 .99.89 1.24t3.23.25q7.45 0 11.75-2.31t4.3-6.85q0-4.55-3.98-7.32-3.98-2.76-11.57-2.76m-4.83-19.03.07 2.27q0 10.72.14 12.85 2.13.14 3.41.14 6.82 0 10.37-2.55 3.55-2.56 3.55-6.85 0-4.3-4.16-6.22-4.15-1.91-10.19-1.91-1.2 0-2.48.35-.71.21-.71 1.92"></path><rect width="34.44" height="49.91" x="-17.22" y="-24.95" fill="none" rx="0" ry="0" transform="translate(115.54 42.44)"></rect><path fill="#fff" d="M168.541 50.708q0 7.32-5.01 12.11-5 4.79-12 4.79-6.99 0-11.57-4.4t-4.58-11.89q0-7.49 4.86-11.79 4.87-4.29 13.39-4.29 4.75 0 9.44 2.98 2.41 1.63 3.94 4.86 1.53 3.23 1.53 7.63m-16.05 11.65h2.24q2.23 0 4.97-3.23 2.73-3.23 2.73-7.99t-2.38-7.88q-2.38-3.12-6.96-3.12t-7.66 2.84q-3.09 2.84-3.09 8.09t2.84 8.27q2.84 3.02 7.31 3.02"></path><rect width="33.16" height="32.37" x="-16.58" y="-16.18" fill="none" rx="0" ry="0" transform="translate(152.46 51.92)"></rect><path fill="#fff" d="m176.701 36.018 3.34-.07q0 .35.42 1.77.43-.14 2.42-.85 4.68-1.63 7.77-1.63t5.43.96q2.35.95 3.63 2.41 1.27 1.45 2.05 3.87 1.14 3.9 1.14 10.36l-.35 12.15q0 1.42-.25 1.63-.25.21-1.99.21t-4.01-.28q-.22-1.71-.22-5.97l.08-9.08q0-5.68-1.92-8.56-1.92-2.88-6.57-2.88t-7.06 1.35l.14 9.52q.07 6.39.07 9.94l.14 4.19q0 1.13-.57 1.45-.56.32-2.41.32l-3.69-.14-.29-14.84.29-10.79v-2.56q0-2.48 2.41-2.48"></path><rect width="28.9" height="31.59" x="-14.45" y="-15.79" fill="none" rx="0" ry="0" transform="translate(188.95 51.53)"></rect><path fill="#fff" d="m239.541 20.258.07 28.32v14.42q0 .64-.04.85-.03.21-.07.71-.03.5-.11.71-.28.85-.46.99-.17.15-.39.29-.49.28-2.34.28-1.85 0-2.49-.21-.14-.36-.21-1.28-.07-.92-.14-1.21-1.49 1.07-4.79 2.28-3.3 1.2-5.93 1.2-6.6 0-10.69-4.47-4.08-4.47-4.08-11.08 0-9.16 7.95-14.13 3.91-2.69 9.94-2.69 1.64 0 7.24 1.49l.08-3.13v-3.76q0-7.95.1-9.3.11-1.35.11-2.63 0-1.28.07-1.67.07-.39.35-.95.5-.86 2.28-.86 1.77 0 2.37.29.61.28.89 1.06.29 1.07.29 2.63Zm-24.64 30.24q0 5.75 2.98 8.98 2.98 3.23 8.1 3.23 2.55 0 4.26-.49 2.91-.93 2.91-2.56v-13.13q0-4.69-.43-5.19-.43-.71-2.59-1.1-2.17-.39-4.3-.39-4.82 0-7.81 2.98-2.98 2.99-3.12 7.67"></path><rect width="31.74" height="53.18" x="-15.87" y="-26.59" fill="none" rx="0" ry="0" transform="translate(224.24 41.52)"></rect><path fill="#fff" d="m263.111 62.148-.29-31.1q0-9.66.29-13.49.07-.57 2.98-.57t3.37.35q.46.36.46 1.14 0 15.05.29 20.24 1.56-1.14 9.87-9.09 8.3-7.95 10.01-9.55 1.7-1.6 2.2-2.13.5-.53.85-.89 1-.85 1.63-.85.64 0 1.64 1.03.99 1.03.99 1.52 0 .5-.42 1-.43.5-1.14 1.17-.71.67-.92.89-6.61 6.96-16.97 16.68-2.13 1.85-2.13 2.24 0 .39.71.89.71.49 1.7 1.1 1 .6 2.1 1.45t4.82 4.09q3.73 3.23 4.73 4.01 12.14 10.15 12.14 11.78 0 .78-1.57 2.17-1.56 1.38-2.2 1.38-.64 0-1.2-.28-.57-.29-.93-.57-1.63-1.56-1.98-1.77h.07l-3.41-2.92q-3.34-2.84-8.45-7.17-5.11-4.33-6.75-5.75-1.63-1.42-2.2-1.91-.56-.5-.92-.79-.85-.92-1.92-1.2-.49.28-.49 4.54l.14 7.31.28 6.18q0 2.2-.67 2.84-.68.64-2.63.64-1.95 0-2.7-.25-.74-.25-1.03-1.1-.35-1.06-.35-3.26"></path><rect width="39.2" height="51.4" x="-19.6" y="-25.7" fill="none" rx="0" ry="0" transform="translate(282.92 42.4)"></rect><path fill="#fff" d="M335.951 50.708q0 7.32-5 12.11-5.01 4.79-12 4.79t-11.57-4.4q-4.58-4.4-4.58-11.89t4.86-11.79q4.86-4.29 13.38-4.29 4.76 0 9.45 2.98 2.41 1.63 3.94 4.86 1.52 3.23 1.52 7.63m-16.04 11.65h2.23q2.24 0 4.97-3.23 2.74-3.23 2.74-7.99t-2.38-7.88q-2.38-3.12-6.96-3.12t-7.67 2.84q-3.08 2.84-3.08 8.09t2.84 8.27q2.84 3.02 7.31 3.02"></path><rect width="33.15" height="32.37" x="-16.57" y="-16.18" fill="none" rx="0" ry="0" transform="translate(319.88 51.92)"></rect><path fill="#fff" d="m344.121 36.018 3.34-.07q0 .35.42 1.77.43-.14 2.42-.85 4.68-1.63 7.77-1.63t5.43.96q2.35.95 3.62 2.41 1.28 1.45 2.06 3.87 1.14 3.9 1.14 10.36l-.36 12.15q0 1.42-.25 1.63-.24.21-1.98.21t-4.01-.28q-.22-1.71-.22-5.97l.07-9.08q0-5.68-1.91-8.56-1.92-2.88-6.57-2.88t-7.07 1.35l.15 9.52q.07 6.39.07 9.94l.14 4.19q0 1.13-.57 1.45-.57.32-2.41.32l-3.69-.14-.29-14.84.29-10.79v-2.56q0-2.48 2.41-2.48"></path><rect width="28.9" height="31.59" x="-14.45" y="-15.79" fill="none" rx="0" ry="0" transform="translate(356.37 51.53)"></rect><path fill="#fff" d="m380.331 36.018 3.34-.07q0 .35.42 1.77.43-.14 2.42-.85 4.68-1.63 7.77-1.63t5.43.96q2.35.95 3.62 2.41 1.28 1.45 2.06 3.87 1.14 3.9 1.14 10.36l-.36 12.15q0 1.42-.25 1.63-.24.21-1.98.21t-4.01-.28q-.22-1.71-.22-5.97l.07-9.08q0-5.68-1.91-8.56-1.92-2.88-6.57-2.88t-7.07 1.35l.15 9.52q.07 6.39.07 9.94l.14 4.19q0 1.13-.57 1.45-.57.32-2.41.32l-3.69-.14-.29-14.84.29-10.79v-2.56q0-2.48 2.41-2.48"></path><rect width="28.9" height="31.59" x="-14.45" y="-15.79" fill="none" rx="0" ry="0" transform="translate(392.58 51.53)"></rect><path fill="#fff" d="m438.191 49.218-16.25.07q-2.63 0-3.06.43-.35.5-.35 1.63 0 5.54 3.16 8.49 3.16 2.94 7.2 2.94 4.05 0 6.32-1.06.07 0 1.42-.92 1.35-.93 1.88-.93.54 0 .82.43.28.43.28.85 0 2.7-3.97 4.58-3.98 1.88-9.27 1.88-5.29 0-10.08-4.26t-4.79-11.5q0-7.24 4.51-11.93 4.51-4.68 12.1-4.68 5.54 0 8.95 3.26 3.62 3.41 3.62 8.24 0 2.48-2.49 2.48m-18.46-3.48q13.49 0 15.62-.14-.21-2.84-2.16-4.68-1.95-1.85-4.94-1.85-2.98 0-5.57 2.1-2.59 2.09-2.95 4.57"></path><rect width="29.18" height="32.37" x="-14.59" y="-16.18" fill="none" rx="0" ry="0" transform="translate(426.6 51.92)"></rect><path fill="#fff" d="M470.501 61.858q1.21 0 1.21 1.71 0 4.04-10.51 4.04-4.47 0-7.95-1.42-3.48-1.42-5.4-3.69-3.98-4.69-3.98-10.44 0-7.38 5.54-11.96 5.54-4.58 13.78-4.58 8.23 0 8.23 2.34 0 1.64-.57 1.85-.56.21-.85.21h-1.28q-8.44 0-13.13 2.45-4.69 2.45-4.69 8.42 0 5.96 3.59 9.05 3.58 3.09 10.05 3.09 1.49 0 3.4-.54 1.92-.53 2.56-.53"></path><rect width="27.84" height="32.09" x="-13.92" y="-16.05" fill="none" rx="0" ry="0" transform="translate(458.3 52.06)"></rect><path fill="#fff" d="m484.771 46.238-.14 10.23q0 2.91.99 4.43 1 1.53 3.34 1.53t3.98-.43q3.05-.85 3.05.86 0 4.75-8.81 4.75-4.97 0-7.73-4.47-1.35-2.84-1.35-6.75l.14-8.23.14-5.97q0-.99-.28-1.24-.29-.25-1.07-.25l-2.77.22q-1.77 0-1.77-1.14 0-1.99.46-2.8.46-.82 1.74-.82l2.77.21q.99 0 .99-2.41v-4.4q0-1.85.07-2.13.85-.43 5.61-.43 1.28 0 1.28 1.35l-.21 7.81q.85.07 2.77.07l5.68-.43q1.13 0 1.13 1.35 0 3.91-3.83 3.91l-4.62-.29q-1.13 0-1.42.15-.14 1.27-.14 5.32"></path><rect width="23.5" height="40.61" x="-11.75" y="-20.3" fill="none" rx="0" ry="0" transform="translate(484.74 47.8)"></rect><path fill="#009dd9" d="M5.008 62.66V15.55a3.897 3.897 0 0 1 2.772-3.738l3.242-.974 7.706-2.32v18.97l8.804-1.664V5.869l7.935-2.383 6.891-2.072a7.617 7.617 0 0 1 4.429 0l34.542 10.398a3.897 3.897 0 0 1 2.772 3.738v17.253h2.826a.602.602 0 0 1 .504.886l-6.73 9.388a.602.602 0 0 1-.975 0l-6.723-9.388a.602.602 0 0 1 .488-.886h2.825V18.446L48.46 10.067v58.076l27.855-8.38v-9.317a1.364 1.364 0 0 1 1.364-1.364h5.066a1.364 1.364 0 0 1 1.364 1.364V62.66a3.897 3.897 0 0 1-2.772 3.738l-33.25 10a12.4 12.4 0 0 1-7.085 0l-33.223-10a3.897 3.897 0 0 1-2.772-3.738"></path></svg></svg>