<svg xmlns="http://www.w3.org/2000/svg" xml:space="preserve" width="1500" height="85" data-id="lg_k11VyQZki18Y1RsNbl" data-version="1" viewBox="0 0 1500 85"><g data-padding="20"><g transform="translate(10 1.356)scale(.9681)"><rect width="540.191" height="80.23" x="89.378" y="-395.644" fill="none" rx="0" ry="0" transform="translate(448.51 400)"/><path d="m543.703 59.171.07-4.4v-36.35q0-1.92 7.81-1.92h1.5q9.44 0 15.3 3.38 5.85 3.37 5.85 9.4 0 2.7-.64 3.94-.63 1.25-.88 1.78t-1.21 1.42-1.14 1.1q-.17.21-1.45 1.21-1.28.99-1.42 1.06 4.9 1.85 7.77 4.54 2.88 2.7 2.88 6.61 0 3.9-1.88 6.92t-4.23 4.65q-5.75 3.91-19.88 3.91-6.96 0-7.88-1.14-.57-.78-.57-6.11m11.79-15.97-2.34-.07q-1.64 0-2.03.39t-.39 1.95l.14 15.48q0 .99.89 1.24t3.23.25q7.46 0 11.75-2.31 4.3-2.31 4.3-6.85t-3.98-7.31q-3.97-2.77-11.57-2.77m-4.83-19.03.07 2.27q0 10.72.14 12.85 2.13.15 3.41.15 6.82 0 10.37-2.56t3.55-6.85q0-4.3-4.15-6.21-4.16-1.92-10.19-1.92-1.21 0-2.49.35-.71.22-.71 1.92m63.76 26.06q0 7.31-5.01 12.1-5 4.8-11.99 4.8-7 0-11.58-4.41-4.58-4.4-4.58-11.89t4.87-11.78q4.86-4.3 13.38-4.3 4.76 0 9.44 2.98 2.42 1.63 3.94 4.87 1.53 3.23 1.53 7.63m-16.05 11.64q4.48 0 7.21-3.23t2.73-7.99q0-4.75-2.37-7.88-2.38-3.12-6.96-3.12t-7.67 2.84-3.09 8.09q0 5.26 2.84 8.27 2.84 3.02 7.31 3.02m24.2-26.34 3.34-.07q0 .35.43 1.77.42-.14 2.41-.85 4.69-1.63 7.78-1.63 3.08 0 5.43.96 2.34.96 3.62 2.41 1.28 1.46 2.06 3.87 1.13 3.91 1.13 10.37l-.35 12.14q0 1.42-.25 1.63t-1.99.21-4.01-.28q-.21-1.7-.21-5.96l.07-9.09q0-5.68-1.92-8.56-1.92-2.87-6.57-2.87t-7.06 1.35l.14 9.51q.07 6.39.07 9.94l.14 4.19q0 1.14-.56 1.46-.57.31-2.42.31l-3.69-.14-.28-14.84.28-10.79v-2.55q0-2.49 2.41-2.49m62.85-17.61v1.85l.07 28.33v14.41q0 .64-.03.85-.04.22-.08.71-.03.5-.1.71-.29.85-.46 1-.18.14-.39.28-.5.28-2.35.28-1.84 0-2.48-.21-.14-.35-.22-1.28-.07-.92-.14-1.2-1.49 1.06-4.79 2.27t-5.93 1.21q-6.6 0-10.68-4.48-4.09-4.47-4.09-11.07 0-9.16 7.96-14.13 3.9-2.7 9.94-2.7 1.63 0 7.24 1.49l.07-3.12v-3.77q0-7.95.11-9.3.1-1.35.1-2.62 0-1.28.07-1.67t.36-.96q.49-.85 2.27-.85 1.77 0 2.38.28.6.28.89 1.07.28 1.06.28 2.62m-24.64 32.09q0 5.76 2.98 8.99 2.99 3.23 8.1 3.23 2.55 0 4.26-.5 2.91-.92 2.91-2.56v-13.13q0-4.69-.43-5.18-.42-.71-2.59-1.1-2.16-.4-4.29-.4-4.83 0-7.81 2.99-2.99 2.98-3.13 7.66m48.2 11.66-.28-31.1q0-9.66.28-13.49.07-.57 2.98-.57t3.38.36q.46.35.46 1.13 0 15.06.28 20.24 1.56-1.14 9.87-9.09t10.01-9.55q1.71-1.6 2.2-2.13.5-.53.85-.89 1-.85 1.64-.85t1.63 1.03.99 1.53q0 .49-.42.99-.43.5-1.14 1.17-.71.68-.92.89-6.6 6.96-16.97 16.69-2.13 1.84-2.13 2.23t.71.89 1.7 1.1q1 .6 2.1 1.46 1.1.85 4.83 4.08 3.72 3.23 4.72 4.01 12.14 10.15 12.14 11.79 0 .78-1.56 2.16-1.56 1.39-2.2 1.39t-1.21-.29q-.57-.28-.92-.57-1.64-1.56-1.99-1.77h.07l-3.41-2.91q-3.34-2.84-8.45-7.17t-6.74-5.75q-1.64-1.42-2.2-1.92-.57-.5-.93-.78-.85-.93-1.91-1.21-.5.28-.5 4.54l.14 7.32.29 6.17q0 2.21-.68 2.84-.67.64-2.63.64-1.95 0-2.69-.24-.75-.25-1.03-1.11-.36-1.06-.36-3.26m72.86-11.44q0 7.31-5.01 12.1-5 4.8-12 4.8-6.99 0-11.57-4.41-4.58-4.4-4.58-11.89t4.86-11.78q4.87-4.3 13.39-4.3 4.75 0 9.44 2.98 2.41 1.63 3.94 4.87 1.53 3.23 1.53 7.63m-16.05 11.64q4.47 0 7.21-3.23 2.73-3.23 2.73-7.99 0-4.75-2.38-7.88-2.38-3.12-6.95-3.12-4.58 0-7.67 2.84t-3.09 8.09q0 5.26 2.84 8.27 2.84 3.02 7.31 3.02m24.21-26.34 3.34-.07q0 .35.43 1.77.42-.14 2.41-.85 4.69-1.63 7.77-1.63 3.09 0 5.44.96 2.34.96 3.62 2.41 1.27 1.46 2.06 3.87 1.13 3.91 1.13 10.37l-.35 12.14q0 1.42-.25 1.63t-1.99.21-4.01-.28q-.21-1.7-.21-5.96l.07-9.09q0-5.68-1.92-8.56-1.92-2.87-6.57-2.87t-7.06 1.35l.14 9.51q.07 6.39.07 9.94l.14 4.19q0 1.14-.57 1.46-.56.31-2.41.31l-3.69-.14-.29-14.84.29-10.79v-2.55q0-2.49 2.41-2.49m36.21 0 3.34-.07q0 .35.43 1.77.42-.14 2.41-.85 4.69-1.63 7.77-1.63 3.09 0 5.44.96 2.34.96 3.62 2.41 1.27 1.46 2.06 3.87 1.13 3.91 1.13 10.37l-.35 12.14q0 1.42-.25 1.63t-1.99.21-4.01-.28q-.21-1.7-.21-5.96l.07-9.09q0-5.68-1.92-8.56-1.92-2.87-6.57-2.87t-7.06 1.35l.14 9.51q.07 6.39.07 9.94l.14 4.19q0 1.14-.57 1.46-.56.31-2.41.31l-3.69-.14-.29-14.84.29-10.79v-2.55q0-2.49 2.41-2.49m57.87 13.21-16.26.07q-2.63 0-3.05.42-.36.5-.36 1.64 0 5.53 3.16 8.48t7.21 2.95q4.04 0 6.32-1.07.07 0 1.42-.92 1.34-.92 1.88-.92.53 0 .81.42.29.43.29.85 0 2.7-3.98 4.58-3.97 1.89-9.26 1.89t-10.09-4.26q-4.79-4.26-4.79-11.51 0-7.24 4.51-11.92 4.51-4.69 12.11-4.69 5.53 0 8.94 3.27 3.62 3.4 3.62 8.23 0 2.49-2.48 2.49m-18.46-3.48q13.49 0 15.62-.14-.22-2.84-2.17-4.69t-4.93-1.85-5.58 2.1q-2.59 2.09-2.94 4.58m50.76 16.11q1.21 0 1.21 1.71 0 4.05-10.51 4.05-4.47 0-7.95-1.42t-5.4-3.7q-3.97-4.68-3.97-10.43 0-7.39 5.54-11.97 5.53-4.58 13.77-4.58t8.24 2.35q0 1.63-.57 1.84-.57.22-.85.22h-1.28q-8.45 0-13.14 2.45-4.68 2.44-4.68 8.41 0 5.96 3.58 9.05 3.59 3.09 10.05 3.09 1.49 0 3.41-.53 1.91-.54 2.55-.54m14.27-15.62-.14 10.23q0 2.91 1 4.44.99 1.52 3.33 1.52 2.35 0 3.98-.42 3.05-.86 3.05.85 0 4.76-8.8 4.76-4.97 0-7.74-4.48-1.35-2.84-1.35-6.74l.14-8.24.14-5.96q0-1-.28-1.24-.28-.25-1.07-.25l-2.76.21q-1.78 0-1.78-1.14 0-1.98.46-2.8t1.74-.82l2.77.22q.99 0 .99-2.42v-4.4q0-1.85.08-2.13.85-.43 5.6-.43 1.28 0 1.28 1.35l-.21 7.81q.85.07 2.77.07l5.68-.42q1.13 0 1.13 1.35 0 3.9-3.83 3.9l-4.61-.28q-1.14 0-1.42.14-.15 1.28-.15 5.32"/><rect width="540.191" height="81.317" x="89.378" y="-396.187" fill="none" rx="0" ry="0" transform="translate(448.51 400)"/><path fill="#0074d9" d="M450.686 61.743v-47.34a3.92 3.92 0 0 1 2.785-3.754l3.258-.98 7.743-2.331v19.064l8.846-1.673V4.677l7.975-2.394L488.217.2c1.45-.44 3-.44 4.45 0l34.71 10.449a3.92 3.92 0 0 1 2.786 3.755v17.337h2.839a.605.605 0 0 1 .507.89l-6.764 9.434a.605.605 0 0 1-.98 0l-6.754-9.434a.605.605 0 0 1 .49-.89h2.839V17.314l-27.99-8.42v58.358l27.99-8.42v-9.36a1.37 1.37 0 0 1 1.37-1.37h5.09a1.37 1.37 0 0 1 1.37 1.37v12.273a3.92 3.92 0 0 1-2.784 3.755l-33.41 10.048a12.46 12.46 0 0 1-7.12 0L453.47 65.5a3.92 3.92 0 0 1-2.785-3.755"/></g><path fill="transparent" stroke="transparent" d="M436.5 0h627v85h-627z"/></g></svg>