<svg xmlns="http://www.w3.org/2000/svg" viewBox="0 0 100 40">
  <path fill="#4faf4a" d="M15.5 5c-5.8 0-10.5 4.7-10.5 10.5v9c0 5.8 4.7 10.5 10.5 10.5h9c5.8 0 10.5-4.7 10.5-10.5v-9c0-5.8-4.7-10.5-10.5-10.5h-9zm0 3h9c4.1 0 7.5 3.4 7.5 7.5v9c0 4.1-3.4 7.5-7.5 7.5h-9c-4.1 0-7.5-3.4-7.5-7.5v-9c0-4.1 3.4-7.5 7.5-7.5z"/>
  <path fill="#4faf4a" d="M12 15h3l3 5 3-5h3v10h-3v-5l-3 5h-1l-3-5v5h-2v-10z"/>
  <text x="42" y="26" font-family="Arial, sans-serif" font-size="14" font-weight="900" fill="#4faf4a">m-</text>
  <text x="58" y="26" font-family="Arial, sans-serif" font-size="14" font-weight="900" fill="#e41e26">pesa</text>
</svg>